<!--?xml version="1.0" standalone="no"?-->
              <svg id="sw-js-blob-svg" viewBox="0 0 100 100" xmlns="http://www.w3.org/2000/svg" version="1.1">
                    <defs> 
                        <linearGradient id="sw-gradient" x1="0" x2="1" y1="1" y2="0">
                            <stop id="stop1" stop-color="rgba(255, 81.917, 0, 1)" offset="0%"></stop>
                            <stop id="stop2" stop-color="rgba(31, 75.869, 251, 1)" offset="100%"></stop>
                        </linearGradient>
                    </defs>
                <path fill="url(#sw-gradient)" d="M20.2,-33.1C27.3,-30.9,34.8,-27.7,38.9,-22C42.9,-16.3,43.5,-8.1,42,-0.9C40.4,6.3,36.7,12.7,33.1,19.3C29.5,25.8,26.2,32.7,20.7,37.7C15.2,42.8,7.6,46.1,0.2,45.7C-7.2,45.4,-14.4,41.4,-20.9,36.9C-27.4,32.4,-33.2,27.4,-37.3,21.2C-41.4,15,-43.9,7.5,-44.3,-0.2C-44.7,-7.9,-43,-15.9,-39.2,-22.7C-35.4,-29.6,-29.5,-35.3,-22.7,-37.6C-15.8,-39.9,-7.9,-38.8,-0.7,-37.7C6.6,-36.5,13.2,-35.3,20.2,-33.1Z" width="100%" height="100%" transform="translate(50 50)" stroke-width="0" style="transition: all 0.3s ease 0s;" stroke="url(#sw-gradient)"></path>
              </svg>